<svg xmlns="http://www.w3.org/2000/svg" viewBox="0 0 256 256">
  <rect width="256" height="256" fill="#7d2438"/>
  <path d="M70 80h40v8h-30v28h26v8h-26v30h32v8h-42zm76 0h42v8h-32v28h28v8h-28v30h34v8h-44z" fill="#d9a6a2"/>
  <path d="M118 122c-2-2-4-3-6-3-3 0-5 2-5 4 0 2 1 3 4 5l4 2c5 3 8 6 8 11 0 7-5 12-13 12-5 0-9-2-12-5l4-6c2 2 5 4 8 4 4 0 6-2 6-5 0-2-1-4-4-6l-4-2c-5-3-8-6-8-10 0-6 5-11 12-11 4 0 8 1 11 4z" fill="#d9a6a2"/>
  <path d="M128 60c-3 0-5 2-5 5s2 5 5 5 5-2 5-5-2-5-5-5m8 8c2 2 2 5 0 7-2 2-5 2-7 0l-2-2-2 2c-2 2-5 2-7 0-2-2-2-5 0-7l9-9z" fill="#d9a6a2" opacity="0.6"/>
</svg>